<?xml version="1.0" encoding="utf-8"?>
<!-- Generator: Adobe Illustrator 26.0.2, SVG Export Plug-In . SVG Version: 6.00 Build 0)  -->
<svg version="1.1" id="Layer_1" xmlns="http://www.w3.org/2000/svg" xmlns:xlink="http://www.w3.org/1999/xlink" x="0px" y="0px"
	 viewBox="0 0 1500 1500" style="enable-background:new 0 0 1500 1500;" xml:space="preserve">
<style type="text/css">
	.st0{fill:#39FF14;}
</style>
<g>
	<path class="st0" d="M1213.5,701.6l-23.5,47.8l23.2,47.9c12.6,26.1,23.6,53.2,32.8,80.5c22.8,68.3,34.5,140.3,34.9,214v189.8
		h-190.2c-102.8,0-201.3-22.8-292.8-67.7l-48.1-23.6l-48.1,23.6c-91.4,44.9-190,67.6-292.9,67.6H218.7v-190.1
		c0-102.9,22.8-201.4,67.8-293l23.5-47.8l-23.2-47.9c-15.5-32-28.5-65.4-38.8-99.2c-19-62.9-28.8-128.7-29-195V218.4h190.5
		c102.7,0,201.1,22.8,292.5,67.6l48.1,23.6l48.1-23.6c91.4-44.9,189.8-67.6,292.5-67.6h0.3l190.2,0l0,190.1
		C1281.2,511.4,1258.4,610,1213.5,701.6z"/>
</g>
<g>
	<path d="M1499.3,1500h-408.5c-118.6,0-233-22.9-340.9-68.1c-107.8,45.2-222.3,68.1-341,68.1H0.3v-408.5
		c0-118.8,23-233.4,68.4-341.4c-11.3-27.3-21.3-55.2-29.8-83.3c-25.1-83.2-38-170-38.3-257.8V0.1h408.5c0.1,0,0.3,0,0.4,0
		c118.5,0,232.8,22.9,340.6,68.1C857.8,22.9,972.2,0.1,1090.7,0.1c0.1,0,0.3,0,0.4,0L1499.7,0l-0.1,408.6
		c0,118.8-23,233.5-68.4,341.5c8,19.3,15.3,38.9,21.9,58.6c30.1,90.3,45.6,185.2,46.2,282.2l0,0.6V1500z M749.8,1190.3L798,1214
		c91.5,44.9,190,67.7,292.8,67.7h190.2v-189.8c-0.4-73.7-12.2-145.8-34.9-214c-9.1-27.4-20.1-54.4-32.8-80.5l-23.2-47.9l23.5-47.8
		c45-91.6,67.8-190.2,67.8-293l0-190.1l-190.2,0c-0.1,0-0.2,0-0.3,0c-102.8,0-201.1,22.7-292.5,67.6l-48.1,23.6L702,286.1
		c-91.4-44.9-189.9-67.6-292.5-67.6c-0.1,0-0.2,0-0.3,0H219v190.1c0.2,66.3,9.9,132.1,29,195c10.2,33.9,23.3,67.2,38.8,99.2
		l23.2,47.9l-23.5,47.8c-45,91.5-67.8,190.1-67.8,293v190.1h190.2c102.9,0,201.4-22.8,292.9-67.7L749.8,1190.3z"/>
</g>
</svg>
